<?xml version="1.0" encoding="UTF-8"?>
<svg id="Calque_1" xmlns="http://www.w3.org/2000/svg" version="1.1" viewBox="0 0 1200.8 348.5">
  <!-- Generator: Adobe Illustrator 29.1.0, SVG Export Plug-In . SVG Version: 2.1.0 Build 142)  -->
  <defs>
    <style>
      .st0 {
        fill: #773535;
      }

      .st1 {
        fill: #06010f;
      }

      .st2 {
        fill: #c3620a;
      }

      .st3 {
        fill: #ac541b;
      }

      .st4 {
        fill: #551e3e;
      }

      .st5 {
        fill: #d76c01;
      }

      .st6 {
        fill: #8c4029;
      }

      .st7 {
        fill: #9b4922;
      }

      .st8 {
        fill: #692a37;
      }
    </style>
  </defs>
  <g id="Groupe_299">
    <path id="Tracé_1230" class="st1" d="M496.2,157.3c-.9-2.8-2.3-5.4-4-7.8-1.6-2.3-3.6-4.2-5.9-5.8-2.3-1.6-4.9-2.9-7.6-3.7-2.9-.9-6-1.3-9.1-1.3-5.8-.1-11.5,1.4-16.4,4.4-4.8,2.9-8.6,7.1-11.2,12.1-2.8,5.6-4.2,11.9-4,18.1-.2,6.4,1.2,12.8,4,18.6,2.5,5.1,6.5,9.4,11.5,12.3,5.4,3,11.5,4.5,17.6,4.4,3.8,0,7.5-.7,10.9-2.2,3.3-1.4,6.2-3.4,8.8-5.9,2.5-2.4,4.6-5.1,6.2-8.2,1.5-2.8,2.6-5.8,3.2-8.9h-34.5v-16.9h56v59.7h-18.7v-26.8l1.4-.7c-.3,2.1-.8,4.2-1.7,6.1-1.2,2.7-2.6,5.2-4.4,7.6-2,2.7-4.5,5.2-7.2,7.3-3.1,2.3-6.5,4.2-10.1,5.5-4.2,1.5-8.6,2.2-13,2.1-13.7,0-26.8-5.4-36.4-15.1-4.9-4.9-8.7-10.7-11.3-17.1-2.8-6.9-4.2-14.3-4.1-21.8,0-7.4,1.3-14.8,4.1-21.7,5.3-12.9,15.6-23.1,28.6-28.1,6.7-2.6,13.9-3.9,21-3.9,10.3-.2,20.5,2.4,29.4,7.7,8.4,5.2,14.7,13.1,17.8,22.4l-21,7.6ZM590.3,225.4v-82.9h21.3v82.9c0,5.5-.8,11-2.6,16.2-1.7,4.9-4.4,9.4-8,13.3-3.7,3.9-8.2,7-13.2,9-5.9,2.3-12.3,3.4-18.7,3.2-6.2,0-12.4-1-18.2-3.3-5.3-2.1-10.1-5.4-13.9-9.7-4-4.5-7-9.9-8.8-15.7l18.9-6.5c1.6,4.7,4.4,8.9,8,12.2,3.7,3.2,8.4,4.8,13.2,4.6,6,.3,11.8-1.9,16.1-6.2,4.1-4.8,6.2-10.9,5.8-17.2h0ZM593.6,188.1c0,6.5-1,12.9-3,19.1-1.4,4.3-3.8,8.2-7,11.4-2.6,2.5-5.7,4.4-9.2,5.5-3.1,1-6.4,1.5-9.6,1.5-6,.1-11.9-1.3-17.1-4.2-5-2.9-9-7.1-11.5-12.3-2.9-6.1-4.3-12.7-4.1-19.5v-47.2h21.1v43.7c-.4,5.7,1.5,11.3,5.1,15.7,3.4,3.7,8.4,5.8,13.4,5.6,3.5,0,7-.9,9.9-2.9,2.9-2,5.1-4.8,6.4-8.1,1.6-3.7,2.3-7.7,2.2-11.7l3.4,3.5ZM627.7,226.2v-83.8h21.4v83.8h-21.4ZM644.6,187.1l4.5-25.3c1.6-5.8,5-11,9.7-14.8,4.7-3.7,10.5-5.6,16.5-5.4v22.3c-.9-.2-1.8-.4-2.7-.5-.9,0-1.8-.1-2.7-.1-3.7,0-7.4.9-10.6,2.7-3.2,1.9-5.8,4.7-7.5,8-2,4.1-2.9,8.6-2.7,13.1h-4.5ZM723.1,227.3c-7.6.1-15-1.7-21.7-5.3-6.4-3.5-11.7-8.7-15.2-15-3.9-7-5.8-14.8-5.6-22.8-.2-8,1.8-15.8,5.7-22.7,3.7-6.3,9.1-11.4,15.6-14.9,13.8-7,30-7,43.8,0,6.4,3.4,11.8,8.6,15.5,14.9,3.9,6.9,5.9,14.8,5.7,22.7.2,8-1.8,15.9-5.8,22.8-3.8,6.4-9.2,11.5-15.7,15-6.8,3.6-14.4,5.4-22.1,5.3ZM723.1,208.8c3.7,0,7.3-.9,10.6-2.7,3.4-1.9,6.3-4.7,8.1-8.2,2.2-4.2,3.3-8.9,3.1-13.6.2-4.7-.9-9.4-3.1-13.6-1.8-3.4-4.6-6.2-8-8-3.2-1.8-6.8-2.7-10.4-2.6-3.6,0-7.2.9-10.4,2.6-3.3,1.9-6,4.7-7.8,8-2.1,4.2-3.2,8.9-3,13.6-.2,4.7.8,9.4,2.8,13.6,1.7,3.4,4.3,6.2,7.6,8.2,3.2,1.8,6.7,2.7,10.4,2.7h0ZM809.8,227.3c-5.6,0-11.1-.9-16.3-2.9-4.6-1.8-8.7-4.6-12.1-8.2-3.1-3.4-5.5-7.4-6.8-11.8l20-4.5c.8,3.2,2.7,6,5.4,7.9,5.8,3.7,13.2,3.9,19.1.5,2-1.3,3.3-3.6,3.3-6,0-2.4-1.3-4.7-3.4-5.8-2.8-1.5-5.7-2.7-8.8-3.4-3.6-.9-7.4-1.8-11.5-2.8-4-1-7.8-2.4-11.5-4.2-3.5-1.7-6.5-4.2-8.8-7.3-2.4-3.6-3.6-7.9-3.4-12.3,0-4.5,1.4-8.9,4-12.6,2.9-4,6.8-7.1,11.4-9.1,5.6-2.4,11.7-3.5,17.8-3.4,5.3-.1,10.7.8,15.6,2.8,4.3,1.7,8.1,4.3,11.2,7.8,3,3.4,5.1,7.5,6.1,11.9l-19.4,5.1c-.6-3.1-2.3-5.9-4.7-8-2.7-2-6-3-9.4-2.8-3.1-.2-6.2.5-8.8,2.2-1.9,1.3-3,3.5-3,5.8,0,2.4,1.3,4.7,3.4,5.8,2.7,1.6,5.7,2.8,8.8,3.5l11.4,3c3.9,1,7.7,2.5,11.4,4.3,3.5,1.7,6.5,4.3,8.8,7.4,2.4,3.6,3.6,7.9,3.4,12.3,0,4.5-1.4,8.9-4,12.5-2.9,4-6.9,7.1-11.5,9-5.5,2.3-11.5,3.5-17.5,3.4h0ZM892.5,227.3c-7.5.1-15-1.7-21.6-5.3-6.2-3.5-11.3-8.7-14.7-15-3.6-7-5.5-14.8-5.3-22.7-.2-7.9,1.6-15.6,5.2-22.6,3.3-6.3,8.4-11.5,14.6-15,6.6-3.7,14.1-5.5,21.7-5.3,4.2,0,8.4.4,12.6,1.4,3.8.9,7.5,2.3,10.8,4.4,3.3,2.1,6.3,4.8,8.6,7.9,2.7,3.7,4.8,7.7,6.1,12.1l-20.5,6.5c-1.2-4.1-3.5-7.8-6.7-10.5-3.1-2.5-7.1-3.7-11.1-3.6-7.5-.2-14.3,4.2-17,11.2-1.7,4.3-2.6,8.9-2.4,13.6-.1,4.6.7,9.2,2.4,13.5,1.4,3.5,3.7,6.4,6.8,8.6,3,2,6.6,3,10.2,2.9,4.5.2,9-1.4,12.3-4.4,3.2-3.1,5.3-7.1,6.3-11.4l20.7,4.9c-1.4,5.2-3.8,10.1-7.1,14.3-3.4,4.5-7.8,8.1-12.9,10.6-6,2.8-12.6,4.2-19.2,4h0ZM981.4,227.3c-7.6.1-15-1.7-21.7-5.3-6.4-3.5-11.6-8.7-15.2-15-3.9-7-5.8-14.8-5.6-22.8-.2-8,1.8-15.8,5.7-22.7,3.7-6.3,9.1-11.4,15.5-14.9,13.8-7,30-7,43.8,0,6.4,3.4,11.8,8.6,15.5,14.9,3.9,6.9,5.9,14.8,5.7,22.7.2,8-1.8,15.9-5.8,22.8-3.8,6.4-9.2,11.5-15.7,15-6.8,3.6-14.4,5.4-22.1,5.3h0ZM981.4,208.8c3.7,0,7.3-.9,10.6-2.7,3.4-1.9,6.3-4.7,8.2-8.2,2.2-4.2,3.3-8.9,3.1-13.6.2-4.7-.9-9.4-3.1-13.6-1.8-3.4-4.6-6.2-8-8-3.2-1.8-6.8-2.7-10.4-2.6-3.6,0-7.2.9-10.4,2.6-3.3,1.9-6,4.7-7.8,8-2.1,4.2-3.2,8.9-3,13.6-.2,4.7.8,9.4,2.8,13.6,1.7,3.4,4.3,6.2,7.6,8.2,3.2,1.8,6.7,2.7,10.4,2.7h0ZM1086.9,227.3c-6.2.1-12.2-1.7-17.3-5.2-5-3.5-8.8-8.5-10.7-14.3v58.2h-21.4v-123.6h21.5v18.3c1.9-5.8,5.7-10.8,10.7-14.2,5.1-3.5,11.2-5.3,17.3-5.1,6.9-.1,13.7,1.8,19.5,5.5,5.7,3.8,10.4,9,13.3,15.2,3.3,6.9,5,14.5,4.8,22.2.1,7.7-1.5,15.3-4.8,22.2-3,6.2-7.6,11.5-13.3,15.2-5.8,3.7-12.6,5.7-19.5,5.5h0ZM1080.8,208.7c3.8,0,7.5-1,10.8-2.8,3.4-2,6.2-4.8,8.1-8.3,2.1-4.1,3.2-8.6,3.1-13.2.1-4.6-.9-9.2-3.1-13.2-5.8-10.4-18.9-14.2-29.3-8.4-3.5,2-6.4,4.9-8.4,8.4-2.2,4.1-3.2,8.6-3.1,13.2-.1,4.6.9,9.2,3.1,13.2,1.9,3.5,4.7,6.3,8.1,8.3,3.3,1.9,7,2.8,10.7,2.8h0ZM1167.8,227.3c-5.6,0-11.1-.9-16.3-3-4.6-1.8-8.7-4.6-12.1-8.2-3.1-3.4-5.5-7.4-6.8-11.8l20-4.5c.8,3.2,2.7,6,5.4,7.9,5.8,3.7,13.2,3.9,19.1.5,2-1.3,3.3-3.6,3.3-6,0-2.4-1.3-4.7-3.4-5.8-2.8-1.5-5.7-2.7-8.8-3.4-3.6-.9-7.4-1.8-11.5-2.8-4-1-7.8-2.4-11.5-4.2-3.5-1.7-6.5-4.2-8.8-7.3-2.4-3.6-3.6-7.9-3.4-12.3,0-4.5,1.4-8.9,4-12.6,2.9-4,6.8-7.1,11.4-9.1,5.6-2.4,11.7-3.5,17.8-3.4,5.3-.1,10.7.8,15.6,2.8,4.3,1.7,8.1,4.3,11.2,7.8,3,3.4,5.1,7.5,6.1,11.9l-19.4,5.1c-.6-3.1-2.3-5.9-4.7-8-2.7-2-6-3-9.4-2.8-3.1-.2-6.2.5-8.8,2.2-1.9,1.3-3,3.5-3,5.8,0,2.4,1.3,4.7,3.4,5.8,2.7,1.6,5.7,2.8,8.8,3.5l11.4,3c3.9,1,7.7,2.5,11.4,4.3,3.5,1.7,6.5,4.3,8.8,7.4,2.4,3.6,3.6,7.9,3.4,12.3,0,4.5-1.4,8.9-4,12.5-2.9,4-6.9,7.1-11.5,9-5.5,2.4-11.5,3.5-17.5,3.4h0Z"/>
    <g id="Groupe_2">
      <g id="Groupe_1">
        <path id="Tracé_2" class="st6" d="M218.9,184.1c27.8-4.7,31.9,35.1,8.5,39.1-28,4.7-32.7-34.9-8.5-39.1"/>
        <path id="Tracé_3" class="st7" d="M220.5,124.5c27.6-3.2,29.5,39.5,2.9,40-11.1,0-20.1-8.9-20.2-20,0-10.1,7.3-18.6,17.3-20"/>
        <path id="Tracé_4" class="st0" d="M167.3,213.9c31.2-5.3,32.3,42.7,1.5,39.2-10.9-1.9-18.2-12.2-16.4-23.1,1.3-7.8,7.2-14.1,14.9-16.1"/>
        <path id="Tracé_5" class="st6" d="M117.4,184.1c26.3-3.6,30.4,35.2,7.7,39.1-10.7,2.5-21.4-4.2-23.9-14.9-2.5-10.7,4.2-21.4,14.9-23.9.4,0,.9-.2,1.3-.3"/>
        <path id="Tracé_6" class="st7" d="M115,125.3c10.7-2.7,21.6,3.7,24.3,14.4,2.7,10.7-3.7,21.6-14.4,24.3-1,.3-2,.4-3,.5-25.4,2.2-28.7-35.5-7-39.2"/>
        <path id="Tracé_7" class="st3" d="M166.5,95.5c10.5-2.5,21.2,3.7,24.2,14.1,2.8,10.7-3.6,21.6-14.2,24.3s-21.6-3.6-24.3-14.2c-.2-.8-.4-1.6-.5-2.4-1-9.9,5.3-19.1,14.9-21.7"/>
        <path id="Tracé_8" class="st8" d="M113.4,257.4c8.9-.4,16.4,6.5,16.7,15.4.4,8.9-6.5,16.4-15.4,16.7s-16.4-6.5-16.7-15.4c-.4-8.9,6.5-16.4,15.4-16.7h0"/>
        <path id="Tracé_9" class="st2" d="M224.5,59.2c8.6-2.3,17.4,2.8,19.7,11.3s-2.8,17.4-11.3,19.7c-2.5.7-5.2.7-7.7.2-8.7-2.2-13.9-11.1-11.6-19.7,1.4-5.5,5.6-9.8,11-11.5"/>
        <path id="Tracé_10" class="st8" d="M226.9,257.4c8.8-1,16.8,5.2,17.8,14,.8,6.7-2.6,13.1-8.6,16.2-23.1,10.9-32.8-27.3-9.2-30.2"/>
        <path id="Tracé_11" class="st6" d="M54.6,158.3c8.8-.9,16.8,5.5,17.7,14.3.9,8.8-5.5,16.8-14.3,17.7-.1,0-.3,0-.4,0-8.9.7-16.6-5.9-17.3-14.8-.7-8.7,5.7-16.4,14.3-17.3"/>
        <path id="Tracé_12" class="st4" d="M170.6,272.7c8.9-.4,16.5,6.5,16.9,15.4.3,6.4-3.2,12.3-8.9,15.2-22.9,9.9-33-28.1-8-30.6"/>
        <path id="Tracé_13" class="st0" d="M268,215.5c8.7-1.5,17,4.3,18.5,13,1.3,7.2-2.5,14.3-9.1,17.3-22.8,9.4-31.3-26.6-9.4-30.3"/>
        <path id="Tracé_14" class="st2" d="M167.3,43.9c8.6-2.2,17.3,3,19.4,11.6,2.2,8.6-3,17.3-11.6,19.4-2.3.6-4.8.6-7.1.2-8.6-1.8-14.2-10.2-12.4-18.9,1.2-6,5.8-10.8,11.8-12.3"/>
        <path id="Tracé_15" class="st3" d="M267.2,101.1c8.6-1.9,17.1,3.6,19,12.2,1.9,8.6-3.6,17.1-12.2,19-8.6,1.9-17.1-3.6-19-12.2-1-4.6,0-9.3,2.8-13,2.3-3,5.6-5.1,9.3-6"/>
        <path id="Tracé_16" class="st3" d="M69,101.1c23-3.9,25.5,31.2,3.8,31.9-8.9,0-16.3-7.1-16.4-16,0-7.6,5.2-14.3,12.6-16"/>
        <path id="Tracé_17" class="st0" d="M71.5,215.5c8.9-.6,16.5,6.1,17.1,15,.6,8.9-6.1,16.5-15,17.1h0c-8.9.6-16.5-6.1-17.1-15-.6-8.9,6.1-16.5,15-17.1"/>
        <path id="Tracé_18" class="st6" d="M282.5,158.3c8.5-1.8,17,3.4,19.2,11.8,2,8.5-3.3,17.1-11.8,19.1-8.5,2-17.1-3.3-19.1-11.8-.5-2.2-.6-4.5-.1-6.7,1.4-6,5.9-10.7,11.8-12.4"/>
        <path id="Tracé_19" class="st2" d="M110.9,59.3c8.6-1.8,17.1,3.7,18.9,12.3,1.8,8.6-3.7,17.1-12.3,18.9-6.3,1.3-12.7-1.2-16.3-6.5-5-7.3-3.1-17.3,4.2-22.3,1.7-1.2,3.6-2,5.6-2.4"/>
        <path id="Tracé_20" class="st4" d="M224.5,314.6c6.6-1,12.8,3.5,13.8,10.1s-3.5,12.8-10.1,13.8c-6.6,1-12.8-3.5-13.8-10.1s3.5-12.8,10.1-13.8h0"/>
        <path id="Tracé_21" class="st4" d="M107.4,335.1c-4.5-5-4-12.7,1-17.2,4.7-4.2,11.8-4.1,16.4.2,4.5,5,4,12.7-1,17.2-4.7,4.2-11.8,4.1-16.4-.2"/>
        <path id="Tracé_22" class="st4" d="M266.9,289.7c4.9-4.6,12.6-4.3,17.2.6,4.3,4.6,4.4,11.7.2,16.4-10.9,11.5-28.6-5.8-17.4-17"/>
        <path id="Tracé_23" class="st7" d="M339.6,154.6c-5,4.5-12.7,4-17.2-1-4.2-4.7-4.1-11.8.2-16.4,5-4.5,12.7-4,17.2,1,4.2,4.7,4.1,11.8-.2,16.4"/>
        <path id="Tracé_24" class="st4" d="M180.1,344.7c-11.8,11.8-28.7-7.1-17.1-17.5,5.1-4.5,12.8-4,17.2,1.1,4.1,4.7,4.1,11.8-.2,16.4"/>
        <path id="Tracé_25" class="st7" d="M9.4,134.2c6.6-1.2,12.9,3.2,14.1,9.8,1.2,6.6-3.2,12.9-9.8,14.1-.2,0-.4,0-.5,0-6.7.6-12.6-4.4-13.1-11.1-.5-6,3.5-11.5,9.4-12.9"/>
        <path id="Tracé_26" class="st5" d="M113.3,10.1c6.5-1.3,12.9,2.9,14.2,9.4s-2.9,12.9-9.4,14.2c-.6.1-1.2.2-1.9.2-6.7.3-12.3-4.9-12.6-11.5-.3-5.9,3.8-11.2,9.7-12.4"/>
        <path id="Tracé_27" class="st3" d="M310.7,81c6.6-.6,12.5,4.3,13.1,10.9.6,6.6-4.3,12.5-10.9,13.1h0c-6.6.6-12.5-4.3-13.1-10.9-.6-6.6,4.3-12.5,10.9-13.1"/>
        <path id="Tracé_28" class="st6" d="M328.4,190.6c6.5-1.3,12.9,2.9,14.2,9.4,1.3,6.5-2.9,12.9-9.4,14.2-.6.1-1.2.2-1.9.2-6.7.3-12.3-4.9-12.6-11.5-.3-5.9,3.8-11.2,9.7-12.4"/>
        <path id="Tracé_29" class="st5" d="M168.1.4c6.4-1.8,13.1,1.9,14.9,8.4,1.8,6.4-1.9,13.1-8.4,14.9-.7.2-1.5.3-2.2.4-6.6.6-12.5-4.3-13-11-.5-5.8,3.2-11.1,8.8-12.6"/>
        <path id="Tracé_30" class="st8" d="M308.3,243.7c6.3-1.9,13,1.7,14.9,8.1,1.9,6.3-1.7,13-8.1,14.9-2,.6-4.1.7-6.1.2-6.4-1.5-10.4-8-8.9-14.4,1-4.2,4.1-7.5,8.2-8.7"/>
        <path id="Tracé_31" class="st2" d="M272.8,38.3c21.8-4,17.1,30.8-1.9,22.5-6-2.5-8.9-9.4-6.4-15.5,1.5-3.6,4.6-6.2,8.4-7"/>
        <path id="Tracé_32" class="st4" d="M65,286.4c6.6-1,12.8,3.5,13.9,10.1,1,6.6-3.5,12.8-10.1,13.9-6.6,1-12.8-3.5-13.9-10.1-1-6.6,3.5-12.8,10.1-13.9h0"/>
        <path id="Tracé_33" class="st6" d="M8.6,190.6c6.5-1.6,13.1,2.5,14.6,9,1.3,5.5-1.4,11.2-6.4,13.7-16.8,7.4-23.6-19.5-8.2-22.7"/>
        <path id="Tracé_34" class="st5" d="M223.7,10.1c6.4-1.6,13,2.2,14.6,8.7,1.3,5.2-.9,10.6-5.5,13.3-17.1,9.4-25-18.7-9.1-22"/>
        <path id="Tracé_35" class="st3" d="M30.4,81c6.7-.1,12.2,5.2,12.4,11.9.1,5.8-3.8,10.8-9.4,12.1-6.5,1.5-13-2.6-14.5-9.1-1.5-6.5,2.6-13,9.1-14.5.8-.2,1.6-.3,2.4-.3"/>
        <path id="Tracé_36" class="st2" d="M64.2,38.3c6.5-1.5,13,2.5,14.5,8.9,1.5,6.5-2.5,13-8.9,14.5-.6.2-1.3.3-2,.3-6.6.5-12.4-4.5-12.9-11.2-.4-5.9,3.5-11.2,9.2-12.6"/>
        <path id="Tracé_37" class="st8" d="M27.1,243.7c6.2-2.2,13.1,1.1,15.2,7.4,2.2,6.2-1.1,13.1-7.4,15.2-6.2,2.2-13.1-1.1-15.2-7.4-1-2.8-.9-5.9.3-8.6,1.6-2.9,4.1-5.2,7.1-6.6"/>
      </g>
    </g>
  </g>
</svg>